<svg xmlns="http://www.w3.org/2000/svg" width="300" height="66" fill="none" viewBox="0 0 300 66">
  <path fill="#FFB800" d="M251 9h48v48h-48V9Z"/>
  <path fill="#8F00FF" fill-rule="evenodd" d="M266 24v24h-6V18h30v30h-6V24h-6v24h-6V24h-6Z" clip-rule="evenodd"/>
  <path fill="#FFB800" d="M201 9h48v48h-48V9Z"/>
  <path fill="#8F00FF" fill-rule="evenodd" d="M216 48V24h18v24h6V18h-30v30h6Zm15-12v-6h-12v6h12Z" clip-rule="evenodd"/>
  <path fill="#FFB800" d="M151 9h48v48h-48V9Z"/>
  <path fill="#8F00FF" fill-rule="evenodd" d="M190 48h-30V30.6h6V42h18V18h6v30Z" clip-rule="evenodd"/>
  <path fill="#fff" d="M101 9h48v48h-48V9Z"/>
  <path fill="#8F00FF" fill-rule="evenodd" d="M122 48h6V24h12v-6h-30v6h12v24Z" clip-rule="evenodd"/>
  <path fill="#fff" d="M51 9h48v48H51V9Z"/>
  <path fill="#8F00FF" fill-rule="evenodd" d="M60 48V18h30v6H66v18h24v6H60Zm21-18v6H69v-6h12Z" clip-rule="evenodd"/>
  <path fill="#fff" d="M1 9h48v48H1V9Z"/>
  <path fill="#8F00FF" fill-rule="evenodd" d="M34 18h.6v12.6H40V48H10V18h24ZM16 42h18v-5.4H16V42Zm12.6-18v6.6H16V24h12.6Z" clip-rule="evenodd"/>
</svg>
