<svg width="1002" height="174" viewBox="0 0 1002 174" fill="none" xmlns="http://www.w3.org/2000/svg">
<path d="M58.9575 174C55.3131 174 52.0864 171.645 50.9757 168.174L0.404764 10.9347C-1.32569 5.52707 2.7088 0 8.38659 0H51.3864C55.0696 0 58.321 2.40473 59.3996 5.92643L87.9986 99.3079L118.38 5.79114C119.502 2.338 122.719 0 126.35 0H168.229C171.922 0 175.18 2.41706 176.25 5.95125L205.795 103.5L223.875 55.7723C225.087 52.4747 228.227 50.2832 231.741 50.2832H266.602C272.305 50.2832 276.343 55.8569 274.565 61.2762L239.214 168.232C238.085 171.673 234.873 174 231.251 174H180.174C176.477 174 173.218 171.578 172.15 168.04L145.755 90L117.874 168.16C116.768 171.638 113.538 174 109.888 174H58.9575Z" fill="#95DC00"/>
<path d="M290.392 174C285.764 174 282.012 170.248 282.012 165.619V58.3972C282.012 53.7687 285.764 50.0166 290.392 50.0166H324.5C329.128 50.0166 332.88 53.7687 332.88 58.3971V165.619C332.88 170.248 329.128 174 324.5 174H290.392Z" fill="#95DC00"/>
<path d="M440.661 49.9989C450.114 49.9989 458.718 52.0227 466.371 55.9861C474.023 59.7969 480.026 65.8181 484.377 74.0497C488.879 82.2812 491 89.8906 491 103V165.662C491 170.29 487.246 174 482.617 174L448.5 174C443.872 174 440.081 170.248 440.081 165.619V111.875C440.081 104.101 438.731 98.6134 436.03 95.4122C433.329 92.0587 429.652 90 425 90C421.549 90 418.323 90.8384 415.321 92.5152C412.47 94.0395 410.145 97.0128 408.344 100.671C406.694 104.33 405.869 109.284 405.869 115.534V165.619C405.869 170.248 402.116 174 397.488 174H363.381C358.752 174 355 170.248 355 165.619V58.4052C355 53.7767 358.752 50.0246 363.381 50.0246L397.488 50.0246C402.116 50.0246 405.869 53.7767 405.869 58.4052L405.998 64.6371C408.909 61.6691 412.135 59.1524 415.677 57.0871C423.93 52.3616 430.607 49.9989 440.661 49.9989Z" fill="#95DC00"/>
<path d="M251 0C247.393 0 244.19 2.30825 243.05 5.73037L238.05 18.9693C236.241 24.396 240.28 30 246 30H324.572C329.2 30 332.953 26.2479 332.953 21.6195L332.966 8.38054C332.966 3.7521 329.214 0 324.585 0H251Z" fill="white"/>
<path d="M569.957 174C566.313 174 563.086 171.645 561.976 168.174L511.405 10.9347C509.674 5.52707 513.709 0 519.387 0H562.386C566.07 0 569.321 2.40473 570.4 5.92643L598.999 99.3079L629.38 5.79114C630.502 2.338 633.719 0 637.35 0H679.229C682.922 0 686.18 2.41706 687.25 5.95125L716.795 103.5L734.875 55.7723C736.087 52.4747 739.227 50.2832 742.741 50.2832H777.602C783.305 50.2832 787.343 55.8569 785.565 61.2762L750.214 168.232C749.085 171.673 745.873 174 742.251 174H691.174C687.477 174 684.218 171.578 683.15 168.04L656.755 90L628.874 168.16C627.768 171.638 624.538 174 620.888 174H569.957Z" fill="white"/>
<path d="M801.392 174C796.764 174 793.012 170.248 793.012 165.619V58.3972C793.012 53.7687 796.764 50.0166 801.392 50.0166H835.5C840.128 50.0166 843.88 53.7687 843.88 58.3971V165.619C843.88 170.248 840.128 174 835.5 174H801.392Z" fill="white"/>
<path d="M951.661 49.9989C961.114 49.9989 969.718 52.0227 977.371 55.9861C985.023 59.7969 991.026 65.8181 995.377 74.0497C999.879 82.2812 1002 89.8906 1002 103V165.662C1002 170.29 998.246 174 993.617 174L959.5 174C954.872 174 951.081 170.248 951.081 165.619V111.875C951.081 104.101 949.731 98.6134 947.03 95.4122C944.329 92.0587 940.652 90 936 90C932.549 90 929.323 90.8384 926.321 92.5152C923.47 94.0395 921.145 97.0128 919.344 100.671C917.694 104.33 916.869 109.284 916.869 115.534V165.619C916.869 170.248 913.116 174 908.488 174H874.381C869.752 174 866 170.248 866 165.619V58.4052C866 53.7767 869.752 50.0246 874.381 50.0246L908.488 50.0246C913.116 50.0246 916.869 53.7767 916.869 58.4052L916.998 64.6371C919.909 61.6691 923.135 59.1524 926.677 57.0871C934.93 52.3616 941.607 49.9989 951.661 49.9989Z" fill="white"/>
<path d="M762 0C758.393 0 755.19 2.30825 754.05 5.73037L749.05 18.9693C747.241 24.396 751.28 30 757 30H835.572C840.2 30 843.953 26.2479 843.953 21.6195L843.966 8.38054C843.966 3.7521 840.214 0 835.585 0H762Z" fill="#95DC00"/>
</svg>
